<svg xmlns="http://www.w3.org/2000/svg" viewBox="0 0 303 344" fill="none">
  <path d="M248.459 55.5935C256.855 57.1615 264.383 59.869 270.721 67.2232C276.873 76.0115 278.701 77.2576 279.252 84.9387C279.478 88.1055 279.409 90.6928 278.958 93.1351C276.689 105.428 272.707 117.526 273.073 130.021C274.274 170.941 249.759 221.536 212.638 251.847C171.823 285.176 117.408 294.61 78.5481 277.322C74.5382 275.538 70.0241 275.11 65.7946 276.282C54.2027 279.493 27.0804 285.705 15.9116 272.746C5.49667 260.661 19.3084 238.683 27.1462 227.486C28.2002 225.981 29.2789 223.873 29.9471 222.161C31.5351 218.092 31.8747 214.172 31.5502 209.817C28.7967 172.859 47.801 130.817 83.332 101.804C118.584 73.018 169.837 57.6996 210.251 63.3882C213.628 63.8636 217.301 63.3244 220.244 61.601C221.224 61.0274 222.074 60.6449 223.148 60.2777C236.525 55.705 237.656 55.0555 248.459 55.5935Z" fill="#2563EB"/>
  <path opacity=".64" d="M148 256.35C148 252.125 153.029 247 158 247C162.971 247 166 252.125 166 256.35C166 260.575 161.971 264 157 264C152.029 264 148 260.575 148 256.35ZM198 231.15C198 227.919 201.074 224 204.111 224C207.149 224 209 227.919 209 231.15C209 234.381 206.538 237 203.5 237C200.462 237 198 234.381 198 231.15ZM218 194.6C218 191.618 221.353 188 224.667 188C227.98 188 230 191.618 230 194.6C230 197.582 227.314 200 224 200C220.686 200 218 197.582 218 194.6ZM166 235.7C166 232.221 169.632 228 173.222 228C176.812 228 179 232.221 179 235.7C179 239.179 176.09 242 172.5 242C168.91 242 166 239.179 166 235.7ZM127 243.05C127 240.316 130.353 237 133.667 237C136.98 237 139 240.316 139 243.05C139 245.784 136.314 248 133 248C129.686 248 127 245.784 127 243.05ZM186 207.15C186 203.919 189.353 200 192.667 200C195.98 200 198 203.919 198 207.15C198 210.381 195.314 213 192 213C188.686 213 186 210.381 186 207.15Z" fill="#013CBB"/>
</svg>
